<svg xmlns:xlink="http://www.w3.org/1999/xlink" xmlns="http://www.w3.org/2000/svg" class="w-6 h-6 md:h-5 md:inline-block md:w-5" data-icon="tabler:sun" viewBox="0 0 24 24" width="24" height="24"><defs><symbol id="ai:tabler:sun"><path d="M8 12a4 4 0 1 0 8 0a4 4 0 1 0-8 0m-5 0h1m8-9v1m8 8h1m-9 8v1M5.6 5.6l.7.7m12.1-.7l-.7.7m0 11.4l.7.7m-12.1-.7l-.7.7" fill="none" stroke="#101010" stroke-linecap="round" stroke-linejoin="round" stroke-width="2px" stroke-opacity="0.66"></path></symbol></defs><symbol id="ai:tabler:sun"><path d="M8 12a4 4 0 1 0 8 0a4 4 0 1 0-8 0m-5 0h1m8-9v1m8 8h1m-9 8v1M5.6 5.6l.7.7m12.1-.7l-.7.7m0 11.4l.7.7m-12.1-.7l-.7.7" fill="none" stroke="#101010" stroke-linecap="round" stroke-linejoin="round" stroke-width="2px" stroke-opacity="0.66"></path></symbol><g><path d="M8 12a4 4 0 1 0 8 0a4 4 0 1 0-8 0m-5 0h1m8-9v1m8 8h1m-9 8v1M5.6 5.6l.7.7m12.1-.7l-.7.7m0 11.4l.7.7m-12.1-.7l-.7.7" fill="none" stroke="#101010" stroke-linecap="round" stroke-linejoin="round" stroke-width="2px" stroke-opacity="0.66"></path></g></svg>