<svg xmlns:xlink="http://www.w3.org/1999/xlink" xmlns="http://www.w3.org/2000/svg" class="h-5 w-5" data-icon="tabler:rss" viewBox="0 0 24 24" width="24" height="24"><defs><symbol id="ai:tabler:rss"><path d="M4 19a1 1 0 1 0 2 0a1 1 0 1 0-2 0M4 4a16 16 0 0 1 16 16M4 11a9 9 0 0 1 9 9" fill="none" stroke="#101010" stroke-linecap="round" stroke-linejoin="round" stroke-width="2px" stroke-opacity="0.66"></path></symbol></defs><symbol id="ai:tabler:rss"><path d="M4 19a1 1 0 1 0 2 0a1 1 0 1 0-2 0M4 4a16 16 0 0 1 16 16M4 11a9 9 0 0 1 9 9" fill="none" stroke="#101010" stroke-linecap="round" stroke-linejoin="round" stroke-width="2px" stroke-opacity="0.66"></path></symbol><g><path d="M4 19a1 1 0 1 0 2 0a1 1 0 1 0-2 0M4 4a16 16 0 0 1 16 16M4 11a9 9 0 0 1 9 9" fill="none" stroke="#101010" stroke-linecap="round" stroke-linejoin="round" stroke-width="2px" stroke-opacity="0.66"></path></g></svg>